<svg width="188.000000" height="170.000000" viewBox="0 0 188 170" fill="none" xmlns="http://www.w3.org/2000/svg" xmlns:xlink="http://www.w3.org/1999/xlink">
	<desc>
			Created with Pixso.
	</desc>
	<defs>
		<clipPath id="clip6_8">
			<rect id="undraw_mobile_ux_re_59hr 1" width="187.155762" height="170.000000" transform="translate(-0.082520 -0.417480) rotate(0.000001)" fill="white" fill-opacity="0"/>
		</clipPath>
	</defs>
	<rect id="undraw_mobile_ux_re_59hr 1" width="187.155762" height="170.000000" transform="translate(-0.082520 -0.417480) rotate(0.000001)" fill="#FFFFFF" fill-opacity="0"/>
	<g clip-path="url(#clip6_8)">
		<path id="Path 2389" d="M179.48 57.33L178.64 57.05L186.34 34.19C187.52 30.68 187.25 26.85 185.59 23.54C183.94 20.23 181.02 17.7 177.5 16.53L177.5 16.53L128.82 0.3C125.29 -0.87 121.44 -0.61 118.11 1.05C114.78 2.7 112.25 5.59 111.07 9.1L111.07 9.1L68.84 134.52C68.26 136.26 68.02 138.1 68.15 139.92C68.28 141.75 68.77 143.54 69.59 145.18C70.41 146.82 71.55 148.28 72.94 149.48C74.32 150.69 75.94 151.6 77.68 152.19L77.69 152.19L126.36 168.41C129.89 169.59 133.74 169.32 137.07 167.67C140.4 166.02 142.93 163.12 144.11 159.61L173.16 73.33L174 73.61L179.48 57.33Z" fill="#3F3D56" fill-opacity="1.000000" fill-rule="nonzero"/>
		<path id="Path 2390" d="M176.87 20.15L170.52 18.03C170.57 18.84 170.42 19.65 170.08 20.39C169.75 21.13 169.23 21.78 168.59 22.27C167.94 22.77 167.18 23.1 166.38 23.23C165.57 23.37 164.75 23.3 163.97 23.04L136.09 13.75C135.31 13.49 134.62 13.05 134.05 12.46C133.49 11.87 133.09 11.15 132.87 10.37C132.65 9.58 132.64 8.76 132.81 7.97C132.99 7.18 133.36 6.44 133.9 5.83L127.96 3.85C125.33 2.97 122.45 3.17 119.97 4.4C117.48 5.63 115.59 7.8 114.71 10.42L72.54 135.65C71.66 138.27 71.86 141.14 73.1 143.61C74.34 146.08 76.51 147.97 79.15 148.84L128.06 165.15C130.69 166.03 133.57 165.83 136.05 164.59C138.54 163.36 140.43 161.2 141.31 158.58L183.48 33.34C184.36 30.72 184.16 27.86 182.92 25.38C181.68 22.91 179.51 21.03 176.87 20.15L176.87 20.15Z" fill="#FFFFFF" fill-opacity="1.000000" fill-rule="nonzero"/>
		<path id="Path 2391" d="M164.64 62.17L112.44 44.77C112.19 44.68 111.98 44.5 111.85 44.26C111.73 44.02 111.71 43.74 111.8 43.48L116.14 30.6C116.22 30.34 116.41 30.13 116.65 30.01C116.89 29.89 117.17 29.87 117.43 29.96L169.63 47.36C169.88 47.44 170.09 47.63 170.21 47.87C170.33 48.11 170.35 48.39 170.27 48.64L165.93 61.53C165.84 61.78 165.66 61.99 165.42 62.11C165.18 62.23 164.9 62.25 164.64 62.16L164.64 62.17ZM117.3 30.34C117.14 30.29 116.98 30.3 116.83 30.38C116.69 30.45 116.58 30.57 116.52 30.73L112.19 43.61C112.14 43.76 112.15 43.93 112.22 44.08C112.29 44.22 112.42 44.33 112.57 44.38L164.77 61.78C164.92 61.83 165.09 61.82 165.24 61.75C165.38 61.68 165.49 61.55 165.54 61.4L169.88 48.51C169.93 48.36 169.92 48.19 169.85 48.05C169.78 47.9 169.65 47.79 169.5 47.74L117.3 30.34Z" fill="#3F3D56" fill-opacity="1.000000" fill-rule="nonzero"/>
		<path id="Path 2392" d="M147.48 113.14L95.28 95.74C95.02 95.66 94.81 95.47 94.69 95.23C94.57 94.99 94.55 94.71 94.64 94.46L102.67 70.61C102.75 70.36 102.94 70.15 103.18 70.03C103.42 69.91 103.7 69.89 103.96 69.97L156.16 87.37C156.41 87.46 156.62 87.64 156.74 87.88C156.86 88.12 156.88 88.4 156.8 88.65L148.77 112.5C148.68 112.76 148.5 112.97 148.26 113.09C148.01 113.21 147.73 113.23 147.48 113.14ZM103.83 70.36C103.67 70.3 103.51 70.32 103.36 70.39C103.22 70.46 103.11 70.59 103.05 70.74L95.02 94.59C94.97 94.74 94.99 94.91 95.06 95.05C95.13 95.2 95.26 95.31 95.41 95.36L147.61 112.76C147.76 112.81 147.93 112.8 148.08 112.72C148.22 112.65 148.33 112.53 148.38 112.37L156.41 88.52C156.46 88.37 156.45 88.2 156.38 88.06C156.31 87.92 156.18 87.81 156.03 87.75L103.83 70.36Z" fill="#3F3D56" fill-opacity="1.000000" fill-rule="nonzero"/>
		<path id="Path 2393" d="M157.52 82.04L134.32 74.31C134.06 74.22 133.85 74.04 133.73 73.8C133.61 73.56 133.59 73.28 133.68 73.02L138.01 60.14C138.1 59.89 138.28 59.68 138.53 59.56C138.77 59.44 139.05 59.42 139.3 59.5L162.5 67.23C162.76 67.32 162.97 67.5 163.09 67.74C163.21 67.99 163.23 68.26 163.15 68.52L158.81 81.4C158.72 81.66 158.54 81.87 158.3 81.99C158.05 82.11 157.77 82.13 157.52 82.04ZM139.17 59.89C139.02 59.84 138.85 59.85 138.71 59.92C138.56 59.99 138.45 60.12 138.4 60.27L134.06 73.15C134.01 73.31 134.02 73.47 134.1 73.62C134.17 73.76 134.3 73.87 134.45 73.92L157.65 81.66C157.8 81.71 157.97 81.7 158.11 81.62C158.26 81.55 158.37 81.43 158.42 81.27L162.76 68.39C162.81 68.24 162.8 68.07 162.73 67.93C162.65 67.78 162.53 67.67 162.37 67.62L139.17 59.89Z" fill="#E6E6E6" fill-opacity="1.000000" fill-rule="nonzero"/>
		<path id="Path 2394" d="M107.99 134.64L84.79 126.91C84.53 126.82 84.32 126.64 84.2 126.4C84.08 126.16 84.06 125.88 84.15 125.62L92.24 101.58C92.33 101.33 92.51 101.12 92.75 101C93 100.88 93.28 100.86 93.53 100.94L116.73 108.67C116.99 108.76 117.2 108.94 117.32 109.18C117.44 109.43 117.46 109.7 117.37 109.96L109.28 134C109.19 134.25 109.01 134.46 108.77 134.58C108.53 134.7 108.25 134.72 107.99 134.64ZM93.4 101.33C93.25 101.28 93.08 101.29 92.93 101.36C92.79 101.43 92.68 101.56 92.63 101.71L84.53 125.75C84.48 125.9 84.49 126.07 84.57 126.22C84.64 126.36 84.77 126.47 84.92 126.52L108.12 134.25C108.27 134.31 108.44 134.29 108.59 134.22C108.73 134.15 108.84 134.02 108.89 133.87L116.99 109.83C117.04 109.68 117.03 109.51 116.95 109.37C116.88 109.22 116.75 109.11 116.6 109.06L93.4 101.33Z" fill="#E6E6E6" fill-opacity="1.000000" fill-rule="nonzero"/>
		<path id="Path 2395" d="M136.6 144.17L113.4 136.44C113.15 136.36 112.93 136.17 112.81 135.93C112.69 135.69 112.67 135.41 112.76 135.16L120.85 111.12C120.94 110.86 121.12 110.65 121.36 110.53C121.61 110.41 121.89 110.39 122.14 110.48L145.34 118.21C145.6 118.3 145.81 118.48 145.93 118.72C146.05 118.96 146.07 119.24 145.98 119.5L137.89 143.54C137.8 143.79 137.62 144 137.38 144.12C137.14 144.24 136.86 144.26 136.6 144.17ZM122.01 110.86C121.86 110.81 121.69 110.82 121.55 110.9C121.4 110.97 121.29 111.09 121.24 111.25L113.15 135.29C113.09 135.44 113.11 135.61 113.18 135.75C113.25 135.9 113.38 136.01 113.53 136.06L136.73 143.79C136.88 143.84 137.05 143.83 137.2 143.76C137.34 143.69 137.45 143.56 137.5 143.41L145.6 119.37C145.65 119.21 145.64 119.05 145.57 118.9C145.49 118.76 145.37 118.65 145.21 118.6L122.01 110.86Z" fill="#E6E6E6" fill-opacity="1.000000" fill-rule="nonzero"/>
		<path id="Ellipse 477" d="M112.99 80.99C112.99 83.28 111.13 85.13 108.84 85.13C106.54 85.13 104.68 83.28 104.68 80.99C104.68 78.71 106.54 76.86 108.84 76.86C111.13 76.86 112.99 78.71 112.99 80.99Z" fill="#8FE1D7" fill-opacity="1.000000" fill-rule="evenodd"/>
		<path id="Path 2396" d="M118.81 81.41C118.64 81.35 118.45 81.37 118.28 81.45C118.12 81.53 117.99 81.67 117.93 81.85C117.88 82.02 117.89 82.21 117.97 82.37C118.05 82.54 118.2 82.66 118.37 82.72L149.31 93.03C149.39 93.06 149.48 93.07 149.58 93.07C149.67 93.06 149.75 93.03 149.84 92.99C149.92 92.95 149.99 92.9 150.05 92.83C150.11 92.76 150.15 92.68 150.18 92.6C150.21 92.51 150.22 92.42 150.22 92.33C150.21 92.24 150.19 92.15 150.15 92.07C150.11 91.99 150.05 91.92 149.98 91.86C149.91 91.8 149.83 91.75 149.75 91.73L118.81 81.41Z" fill="#E6E6E6" fill-opacity="1.000000" fill-rule="nonzero"/>
		<path id="Path 2397" d="M117.49 85.33C117.41 85.3 117.31 85.29 117.22 85.3C117.13 85.3 117.04 85.33 116.96 85.37C116.88 85.41 116.81 85.46 116.75 85.53C116.69 85.6 116.64 85.68 116.62 85.76C116.59 85.85 116.57 85.94 116.58 86.03C116.59 86.12 116.61 86.21 116.65 86.29C116.69 86.37 116.75 86.44 116.82 86.5C116.89 86.56 116.97 86.61 117.05 86.64L130.36 91.07C130.45 91.1 130.54 91.11 130.63 91.11C130.72 91.1 130.81 91.08 130.89 91.04C130.97 91 131.05 90.94 131.11 90.87C131.17 90.8 131.21 90.73 131.24 90.64C131.27 90.55 131.28 90.46 131.27 90.37C131.27 90.28 131.24 90.2 131.2 90.11C131.16 90.03 131.11 89.96 131.04 89.9C130.97 89.84 130.89 89.8 130.8 89.77L117.49 85.33Z" fill="#E6E6E6" fill-opacity="1.000000" fill-rule="nonzero"/>
		<path id="Path 2398" d="M103.27 87.56C102.77 87.39 102.26 87.55 102.14 87.91C102.02 88.27 102.33 88.7 102.83 88.86L145.51 103.09C146.01 103.26 146.52 103.1 146.64 102.74C146.76 102.38 146.45 101.95 145.95 101.78L103.27 87.56Z" fill="#E6E6E6" fill-opacity="1.000000" fill-rule="nonzero"/>
		<path id="Path 2399" d="M101.95 91.47C101.45 91.31 100.95 91.47 100.82 91.83C100.7 92.19 101.01 92.61 101.51 92.78L144.19 107.01C144.69 107.18 145.2 107.02 145.32 106.66C145.44 106.3 145.13 105.87 144.63 105.7L101.95 91.47Z" fill="#E6E6E6" fill-opacity="1.000000" fill-rule="nonzero"/>
		<path id="Ellipse 478" d="M127.37 39.57C127.37 41.85 125.51 43.7 123.21 43.7C120.92 43.7 119.06 41.85 119.06 39.57C119.06 37.29 120.92 35.44 123.21 35.44C125.51 35.44 127.37 37.29 127.37 39.57Z" fill="#8FE1D7" fill-opacity="1.000000" fill-rule="evenodd"/>
		<path id="Path 2400" d="M133.19 39.99C133.1 39.96 133.01 39.95 132.92 39.96C132.83 39.96 132.74 39.99 132.66 40.03C132.58 40.07 132.5 40.12 132.44 40.19C132.38 40.26 132.34 40.34 132.31 40.43C132.28 40.51 132.27 40.6 132.27 40.69C132.28 40.78 132.31 40.87 132.35 40.95C132.39 41.03 132.44 41.1 132.51 41.16C132.58 41.22 132.66 41.27 132.75 41.3L163.68 51.61C163.77 51.64 163.86 51.65 163.95 51.64C164.04 51.64 164.13 51.61 164.21 51.57C164.29 51.53 164.37 51.48 164.43 51.41C164.48 51.34 164.53 51.26 164.56 51.17C164.59 51.09 164.6 51 164.59 50.91C164.59 50.82 164.56 50.73 164.52 50.65C164.48 50.57 164.43 50.5 164.36 50.44C164.29 50.38 164.21 50.33 164.12 50.3L133.19 39.99Z" fill="#E6E6E6" fill-opacity="1.000000" fill-rule="nonzero"/>
		<path id="Path 2401" d="M131.87 43.91C131.78 43.88 131.69 43.87 131.6 43.88C131.51 43.88 131.42 43.91 131.34 43.95C131.26 43.99 131.18 44.04 131.12 44.11C131.06 44.18 131.02 44.26 130.99 44.34C130.96 44.43 130.95 44.52 130.96 44.61C130.96 44.7 130.99 44.79 131.03 44.87C131.07 44.95 131.12 45.02 131.19 45.08C131.26 45.14 131.34 45.19 131.43 45.22L144.74 49.65C144.83 49.68 144.92 49.69 145.01 49.69C145.1 49.68 145.19 49.66 145.27 49.62C145.35 49.58 145.42 49.52 145.48 49.45C145.54 49.38 145.59 49.3 145.62 49.22C145.64 49.13 145.66 49.04 145.65 48.95C145.64 48.86 145.62 48.77 145.58 48.69C145.54 48.61 145.48 48.54 145.41 48.48C145.34 48.42 145.27 48.38 145.18 48.35L131.87 43.91Z" fill="#E6E6E6" fill-opacity="1.000000" fill-rule="nonzero"/>
		<path id="Path 2402" d="M128.89 72.5L107.12 65.25L115.22 58.13C115.36 58 115.54 57.91 115.73 57.87C115.92 57.84 116.11 57.85 116.3 57.91C116.48 57.97 116.64 58.08 116.77 58.22C116.9 58.37 116.99 58.54 117.03 58.73L117.95 63.23L123.82 58.06C124.01 57.9 124.23 57.79 124.46 57.74C124.7 57.69 124.95 57.71 125.18 57.79C125.41 57.86 125.61 58 125.77 58.18C125.93 58.36 126.04 58.58 126.09 58.81L128.89 72.5ZM107.92 65.08L128.35 71.89L125.69 58.9C125.66 58.73 125.58 58.57 125.47 58.45C125.35 58.32 125.21 58.22 125.05 58.17C124.89 58.12 124.71 58.11 124.55 58.14C124.38 58.17 124.22 58.25 124.09 58.36L117.69 64L116.63 58.81C116.6 58.69 116.55 58.58 116.47 58.49C116.39 58.4 116.28 58.33 116.17 58.29C116.05 58.25 115.93 58.25 115.81 58.27C115.69 58.3 115.58 58.35 115.49 58.43L107.92 65.08Z" fill="#E6E6E6" fill-opacity="1.000000" fill-rule="nonzero"/>
		<path id="Path 2404" d="M128.91 72.51L105.71 64.77C105.45 64.69 105.24 64.5 105.12 64.26C105 64.02 104.98 63.74 105.07 63.49L109.4 50.6C109.49 50.35 109.67 50.14 109.91 50.02C110.16 49.9 110.44 49.88 110.69 49.97L133.89 57.7C134.15 57.78 134.36 57.97 134.48 58.21C134.6 58.45 134.62 58.73 134.53 58.98L130.2 71.87C130.11 72.12 129.93 72.33 129.68 72.45C129.44 72.57 129.16 72.59 128.91 72.51ZM110.56 50.35C110.41 50.3 110.24 50.31 110.1 50.38C109.95 50.45 109.84 50.58 109.79 50.73L105.45 63.62C105.4 63.77 105.41 63.94 105.48 64.08C105.56 64.23 105.68 64.34 105.84 64.39L129.04 72.12C129.19 72.17 129.36 72.16 129.5 72.09C129.65 72.02 129.76 71.89 129.81 71.74L134.15 58.85C134.2 58.7 134.19 58.53 134.12 58.39C134.04 58.24 133.92 58.13 133.76 58.08L110.56 50.35Z" fill="#E6E6E6" fill-opacity="1.000000" fill-rule="nonzero"/>
		<path id="Path 2405" d="M96.8 107.55C96.72 107.52 96.63 107.51 96.54 107.51C96.45 107.52 96.36 107.54 96.28 107.58C96.19 107.62 96.12 107.68 96.06 107.75C96 107.82 95.96 107.9 95.93 107.98C95.9 108.07 95.89 108.16 95.89 108.25C95.9 108.34 95.92 108.43 95.96 108.51C96.01 108.59 96.06 108.66 96.13 108.72C96.2 108.78 96.28 108.82 96.36 108.85L109.68 113.29C109.85 113.35 110.04 113.33 110.21 113.25C110.37 113.17 110.49 113.03 110.55 112.86C110.61 112.68 110.6 112.49 110.52 112.33C110.43 112.17 110.29 112.04 110.12 111.98L96.8 107.55Z" fill="#E6E6E6" fill-opacity="1.000000" fill-rule="nonzero"/>
		<path id="Path 2406" d="M95.51 111.39C95.42 111.37 95.33 111.35 95.24 111.36C95.15 111.37 95.06 111.39 94.98 111.43C94.9 111.47 94.83 111.53 94.77 111.59C94.71 111.66 94.66 111.74 94.63 111.83C94.6 111.91 94.59 112 94.6 112.09C94.6 112.19 94.63 112.27 94.67 112.35C94.71 112.44 94.77 112.51 94.84 112.57C94.9 112.63 94.98 112.67 95.07 112.7L108.38 117.14C108.56 117.2 108.75 117.18 108.91 117.1C109.07 117.02 109.2 116.88 109.26 116.7C109.32 116.53 109.3 116.34 109.22 116.18C109.14 116.02 109 115.89 108.82 115.83L95.51 111.39Z" fill="#E6E6E6" fill-opacity="1.000000" fill-rule="nonzero"/>
		<path id="Path 2408" d="M133.33 137.57C133.5 137.63 133.69 137.62 133.85 137.53C134.02 137.45 134.14 137.31 134.2 137.14C134.26 136.96 134.25 136.77 134.17 136.61C134.08 136.45 133.94 136.32 133.77 136.26L120.45 131.83C120.28 131.77 120.09 131.78 119.93 131.86C119.76 131.95 119.64 132.09 119.58 132.26C119.52 132.43 119.53 132.62 119.62 132.79C119.7 132.95 119.84 133.08 120.01 133.13L133.33 137.57Z" fill="#E6E6E6" fill-opacity="1.000000" fill-rule="nonzero"/>
		<path id="Path 2409" d="M134.62 133.72C134.71 133.75 134.8 133.76 134.89 133.76C134.98 133.75 135.07 133.73 135.15 133.69C135.23 133.65 135.3 133.59 135.36 133.52C135.42 133.45 135.47 133.38 135.5 133.29C135.53 133.2 135.54 133.11 135.53 133.02C135.53 132.93 135.5 132.84 135.46 132.76C135.42 132.68 135.36 132.61 135.3 132.55C135.23 132.49 135.15 132.45 135.06 132.42L121.75 127.98C121.66 127.95 121.57 127.94 121.48 127.95C121.39 127.95 121.3 127.98 121.22 128.02C121.14 128.06 121.07 128.11 121.01 128.18C120.95 128.25 120.9 128.33 120.87 128.41C120.84 128.5 120.83 128.59 120.84 128.68C120.84 128.77 120.87 128.86 120.91 128.94C120.95 129.02 121.01 129.09 121.07 129.15C121.14 129.21 121.22 129.26 121.31 129.28L134.62 133.72Z" fill="#E6E6E6" fill-opacity="1.000000" fill-rule="nonzero"/>
		<path id="Path 2409" d="M155.41 72.1C155.5 72.13 155.59 72.14 155.68 72.13C155.77 72.13 155.86 72.1 155.94 72.06C156.02 72.02 156.1 71.97 156.16 71.9C156.22 71.83 156.26 71.75 156.29 71.66C156.32 71.58 156.33 71.49 156.32 71.4C156.32 71.31 156.29 71.22 156.25 71.14C156.21 71.06 156.16 70.98 156.09 70.92C156.02 70.87 155.94 70.82 155.85 70.79L142.54 66.35C142.45 66.32 142.36 66.31 142.27 66.32C142.18 66.33 142.09 66.35 142.01 66.39C141.93 66.43 141.86 66.49 141.8 66.55C141.74 66.62 141.69 66.7 141.66 66.79C141.63 66.87 141.62 66.96 141.63 67.05C141.64 67.14 141.66 67.23 141.7 67.31C141.74 67.4 141.8 67.47 141.87 67.53C141.94 67.59 142.01 67.63 142.1 67.66L155.41 72.1Z" fill="#E6E6E6" fill-opacity="1.000000" fill-rule="nonzero"/>
		<path id="Path 2409" d="M154.31 75.18C154.39 75.21 154.48 75.22 154.58 75.21C154.67 75.21 154.75 75.18 154.84 75.14C154.92 75.1 154.99 75.05 155.05 74.98C155.11 74.91 155.16 74.83 155.18 74.74C155.21 74.66 155.22 74.57 155.22 74.48C155.21 74.39 155.19 74.3 155.15 74.22C155.11 74.14 155.05 74.07 154.98 74.01C154.91 73.95 154.83 73.9 154.75 73.87L141.43 69.44C141.35 69.41 141.26 69.39 141.17 69.4C141.08 69.41 140.99 69.43 140.91 69.47C140.82 69.51 140.75 69.57 140.69 69.64C140.63 69.7 140.59 69.78 140.56 69.87C140.53 69.96 140.52 70.05 140.52 70.14C140.53 70.23 140.55 70.31 140.59 70.4C140.64 70.48 140.69 70.55 140.76 70.61C140.83 70.67 140.91 70.71 140.99 70.74L154.31 75.18Z" fill="#E6E6E6" fill-opacity="1.000000" fill-rule="nonzero"/>
		<path id="Ellipse 476" d="M49.86 60.59C49.86 64.46 46.71 67.59 42.82 67.59C38.93 67.59 35.78 64.46 35.78 60.59C35.78 56.72 38.93 53.58 42.82 53.58C46.71 53.58 49.86 56.72 49.86 60.59Z" fill="#9F616A" fill-opacity="1.000000" fill-rule="evenodd"/>
		<path id="Path 2387" d="M38.75 61.45C39.31 61.42 39.85 61.61 40.41 61.68C42.39 61.94 44.45 60.51 44.89 58.57C44.93 58.31 45 58.06 45.12 57.83C45.43 57.33 46.12 57.24 46.69 57.35C47.27 57.46 47.81 57.73 48.39 57.76C49.3 57.81 50.16 57.26 50.64 56.5C51.09 55.71 51.29 54.8 51.19 53.91L50.76 54.36C50.58 53.99 50.52 53.58 50.56 53.17C50.34 53.11 50.09 53.11 49.86 53.17C49.64 53.22 49.42 53.34 49.25 53.5C48.87 53.54 49.16 52.8 48.88 52.54C48.74 52.46 48.58 52.43 48.42 52.46C47.61 52.47 46.95 51.85 46.31 51.35C45.21 50.5 43.91 49.91 42.54 49.64C41.62 49.46 40.65 49.43 39.78 49.77C39.08 50.08 38.45 50.53 37.92 51.08C36.56 52.38 35.36 53.91 34.8 55.7C34.34 57.17 34.32 58.73 34.76 60.21C34.99 60.97 35.67 63.59 36.68 63.65C37.94 63.73 37.18 61.55 38.75 61.45Z" fill="#2F2E41" fill-opacity="1.000000" fill-rule="nonzero"/>
		<path id="Path 111" d="M29 116.68C29.39 116.41 29.72 116.06 29.96 115.66C30.2 115.25 30.35 114.8 30.39 114.33C30.44 113.86 30.38 113.39 30.22 112.94C30.06 112.5 29.81 112.09 29.48 111.76L30.73 83.86L24.34 84.57L24.71 111.86C24.18 112.46 23.89 113.22 23.89 114.01C23.89 114.81 24.18 115.57 24.71 116.17C25.24 116.76 25.97 117.14 26.76 117.23C27.55 117.33 28.35 117.13 29 116.68L29 116.68Z" fill="#A0616A" fill-opacity="1.000000" fill-rule="nonzero"/>
		<path id="Path 112" d="M40.67 163.9L44.31 164.54L47.91 150.87L43.14 149.93L40.67 163.9Z" fill="#A0616A" fill-opacity="1.000000" fill-rule="nonzero"/>
		<path id="Path 113" d="M50.71 169.14L39.27 167.13L40.05 162.73L47.07 163.96C48.24 164.17 49.28 164.83 49.97 165.8C50.65 166.77 50.92 167.97 50.71 169.14Z" fill="#2F2E41" fill-opacity="1.000000" fill-rule="nonzero"/>
		<path id="Path 114" d="M30.68 165.72L34.37 165.72L36.13 151.53L30.68 151.53L30.68 165.72Z" fill="#A0616A" fill-opacity="1.000000" fill-rule="nonzero"/>
		<path id="Path 115" d="M41.5 169.13L29.88 169.13L29.88 164.67L37.01 164.67C38.2 164.67 39.34 165.14 40.18 165.97C41.02 166.81 41.5 167.95 41.5 169.13Z" fill="#2F2E41" fill-opacity="1.000000" fill-rule="nonzero"/>
		<path id="Path 116" d="M46.1 160.63C46.04 160.63 45.98 160.63 45.92 160.62L41.57 160.27C41.19 160.22 40.83 160.03 40.59 159.72C40.35 159.42 40.24 159.03 40.29 158.64C40.29 158.62 40.29 158.59 40.3 158.57L44.62 137.37L41.9 123.13C41.88 123.01 41.82 122.91 41.72 122.84C41.63 122.76 41.51 122.73 41.4 122.73C41.28 122.74 41.16 122.79 41.08 122.87C40.99 122.95 40.94 123.06 40.93 123.18L36.93 159.36C36.9 159.74 36.71 160.09 36.42 160.34C36.13 160.59 35.75 160.71 35.36 160.69L31.27 160.54C30.91 160.51 30.57 160.36 30.32 160.1C30.07 159.85 29.92 159.51 29.9 159.15L30.23 115.43L51.47 112.79L52.96 135.59L52.95 135.62L47.53 159.52C47.45 159.83 47.27 160.12 47.01 160.32C46.75 160.52 46.43 160.63 46.1 160.63Z" fill="#2F2E41" fill-opacity="1.000000" fill-rule="nonzero"/>
		<path id="Path 117" d="M44.21 118.75C43.05 118.76 41.91 118.44 40.93 117.82C37.35 115.59 33.27 116.48 31.16 117.21C30.95 117.28 30.73 117.3 30.51 117.28C30.29 117.25 30.08 117.18 29.89 117.06C29.71 116.95 29.55 116.79 29.43 116.61C29.32 116.42 29.25 116.21 29.22 116L25.39 81.91C24.74 76.2 28.2 70.84 33.61 69.15C33.81 69.09 34.02 69.03 34.23 68.97C35.91 68.52 37.67 68.43 39.39 68.73C41.1 69.03 42.74 69.69 44.17 70.69C45.62 71.69 46.84 73 47.73 74.52C48.63 76.04 49.18 77.74 49.34 79.49L52.57 113.8C52.59 114.02 52.56 114.25 52.48 114.45C52.4 114.66 52.27 114.85 52.11 115C50.98 116.04 47.69 118.75 44.21 118.75Z" fill="#8FE1D7" fill-opacity="1.000000" fill-rule="nonzero"/>
		<path id="Path 118" d="M32.53 89.22L23.88 88.28C23.63 88.25 23.39 88.17 23.18 88.04C22.97 87.92 22.78 87.75 22.64 87.54C22.5 87.34 22.41 87.11 22.37 86.87C22.32 86.62 22.33 86.38 22.4 86.14L24.6 77.78C24.67 77.16 24.86 76.56 25.16 76.01C25.46 75.46 25.86 74.97 26.35 74.58C26.84 74.19 27.4 73.9 28.01 73.72C28.61 73.54 29.24 73.49 29.87 73.55C30.49 73.62 31.1 73.81 31.65 74.11C32.2 74.41 32.69 74.81 33.09 75.3C33.48 75.79 33.78 76.35 33.95 76.95C34.13 77.55 34.19 78.18 34.12 78.8C34.12 78.82 34.11 78.84 34.11 78.85L34.44 87.45C34.45 87.7 34.4 87.95 34.31 88.17C34.21 88.4 34.07 88.61 33.89 88.77C33.71 88.94 33.49 89.07 33.26 89.15C33.02 89.22 32.77 89.25 32.53 89.22Z" fill="#8FE1D7" fill-opacity="1.000000" fill-rule="nonzero"/>
		<path id="Path 119" d="M52.53 115.48C52.89 115.17 53.17 114.79 53.36 114.35C53.55 113.92 53.64 113.45 53.63 112.98C53.62 112.51 53.51 112.05 53.29 111.63C53.08 111.21 52.78 110.84 52.41 110.54L50.28 82.69L44.01 84.1L47.69 111.22C47.24 111.87 47.04 112.66 47.14 113.45C47.23 114.24 47.61 114.96 48.21 115.49C48.81 116.01 49.58 116.3 50.37 116.3C51.17 116.3 51.94 116.01 52.53 115.48L52.53 115.48Z" fill="#A0616A" fill-opacity="1.000000" fill-rule="nonzero"/>
		<path id="Path 120" d="M41.61 87.47C41.43 87.3 41.29 87.1 41.19 86.87C41.1 86.64 41.05 86.4 41.06 86.15L41.39 77.55C41.25 76.3 41.62 75.05 42.41 74.06C43.21 73.08 44.36 72.45 45.61 72.31C46.87 72.17 48.13 72.53 49.12 73.31C50.11 74.09 50.75 75.23 50.9 76.48L53.1 84.83C53.17 85.07 53.18 85.32 53.13 85.56C53.09 85.81 53 86.04 52.86 86.24C52.72 86.44 52.53 86.62 52.32 86.74C52.11 86.87 51.87 86.95 51.63 86.97L42.97 87.92C42.73 87.95 42.48 87.92 42.24 87.84C42.01 87.77 41.79 87.64 41.61 87.47L41.61 87.47Z" fill="#8FE1D7" fill-opacity="1.000000" fill-rule="nonzero"/>
		<path id="Rectangle 256" d="M-0.09 169.14L163.2 169.14L163.2 169.58L-0.09 169.58L-0.09 169.14Z" fill="#CACACA" fill-opacity="1.000000" fill-rule="evenodd"/>
	</g>
</svg>
